<?xml version="1.0" encoding="UTF-8" standalone="no"?>
<!DOCTYPE svg PUBLIC "-//W3C//DTD SVG 1.1//EN" "http://www.w3.org/Graphics/SVG/1.1/DTD/svg11.dtd">
<svg width="100%" height="100%" viewBox="0 0 512 381" version="1.1" xmlns="http://www.w3.org/2000/svg" xmlns:xlink="http://www.w3.org/1999/xlink" xml:space="preserve" xmlns:serif="http://www.serif.com/" style="fill-rule:evenodd;clip-rule:evenodd;stroke-linejoin:round;stroke-miterlimit:2;">
    <g transform="matrix(1,0,0,1,-0,-38.144661)">
        <g id="Casa" transform="matrix(0,1,-1,0,512,14.144661)">
            <path d="M58.115,290.934C39.144,271.508 39.144,240.492 58.115,221.066C92.82,185.528 147.868,129.16 193.689,82.239C206.989,68.619 227.212,64.409 244.843,71.59C262.473,78.77 274,95.911 274,114.948L274,121C274,121 308.761,121.081 342.376,121.159C376.605,121.239 404.31,149.009 404.31,183.237L404.31,195.92C404.31,206.74 395.555,215.52 384.736,215.552C367.655,215.603 343.045,215.676 326.261,215.725C315.974,215.756 307.641,224.087 307.61,234.375C307.58,244.28 307.543,256.432 307.513,266.357C307.498,271.322 309.457,276.089 312.959,279.609C316.461,283.128 321.219,285.111 326.184,285.12C343.01,285.152 367.628,285.199 384.715,285.232C395.543,285.252 404.31,294.036 404.31,304.864C404.31,311.358 404.31,318.974 404.31,326.922C404.31,343.386 397.769,359.176 386.128,370.818C374.486,382.46 358.696,389 342.232,389L274,389L274,397.052C274,416.089 262.473,433.23 244.843,440.41C227.212,447.591 206.989,443.381 193.689,429.761C147.868,382.84 92.82,326.472 58.115,290.934Z" style="fill:white;"/>
        </g>
    </g>
</svg>
